<svg id="Layer_2" enable-background="new 0 0 512 512" height="512" viewBox="0 0 512 512" width="512" xmlns="http://www.w3.org/2000/svg"><path d="m10 90.4853516c16.9389648 0 30.7202148 13.78125 30.7202148 30.7197266 0 4.4179688 3.581543 8 8 8s8-3.5820312 8-8c0-16.9384766 13.7807617-30.7197266 30.7197266-30.7197266 4.418457 0 8-3.5820312 8-8s-3.581543-8-8-8c-16.9389648 0-30.7197266-13.78125-30.7197266-30.7197266 0-4.4179688-3.581543-8-8-8s-8 3.5820312-8 8c0 16.9384766-13.78125 30.7197266-30.7202148 30.7197266-4.418457 0-8 3.5820312-8 8s3.581543 8 8 8zm38.7202148-20.6015625c3.3569336 4.9609375 7.640625 9.2441406 12.6015625 12.6015625-4.9609375 3.3574219-9.2446289 7.640625-12.6015625 12.6015625-3.3569336-4.9609375-7.640625-9.2441406-12.6015625-12.6015625 4.9609375-3.3574219 9.2446289-7.640625 12.6015625-12.6015625z"/><path d="m502 414.2158203c-16.9389648 0-30.7202148-13.78125-30.7202148-30.7197266 0-4.4179688-3.581543-8-8-8s-8 3.5820312-8 8c0 16.9384766-13.7807617 30.7197266-30.7197266 30.7197266-4.418457 0-8 3.5820312-8 8s3.581543 8 8 8c16.9389648 0 30.7197266 13.78125 30.7197266 30.7207031 0 4.4179688 3.581543 8 8 8s8-3.5820312 8-8c0-16.9394531 13.78125-30.7207031 30.7202148-30.7207031 4.418457 0 8-3.5820312 8-8s-3.581543-8-8-8zm-38.7202148 20.6015625c-3.3569336-4.9609375-7.640625-9.2441406-12.6015625-12.6015625 4.9609375-3.3564453 9.2446289-7.640625 12.6015625-12.6015625 3.3569336 4.9609375 7.6411133 9.2451172 12.6015625 12.6015625-4.9604493 3.3574219-9.2446289 7.640625-12.6015625 12.6015625z"/><path d="m510 210.4746094c.017334-3.7578125-2.8535156-7.171875-6.546875-7.8164062-22.0058594-4.0644531-41.9770508-19.5898438-65.1020508-37.5654297-20.4926758-15.9296875-43.7192383-33.9853516-71.6044922-45.3828125-38.5966797-15.7714844-60.2138672.6611328-77.5849609 13.8662109-10.9897461 8.3544922-20.480957 15.5693359-33.1616211 15.5693359s-22.171875-7.2148438-33.1616211-15.5693359c-17.3701172-13.2050781-38.9873047-29.6376953-77.5849609-13.8662109-27.8852539 11.3974609-51.1118164 29.453125-71.6044922 45.3828125-23.125 17.9765625-43.0961914 33.5009766-65.1020508 37.5654297-3.6930542.6450195-6.5640259 4.0588378-6.546875 7.8164062-.019043 2.9746094.1621094 73.5585938 54.6474609 134.4111328 7.6149902 8.5053711 16.2355347 16.175293 25.8042603 23.0185547.2209473.1967773 5.0907059 3.5935059 7.3664474 5.0476074 6.9090424 4.4145508 14.3018036 8.4427795 22.1085892 12.0581055-4.0300903 1.9460449-8.546936 3.0378418-13.3139648 3.0378418-4.418457 0-8 3.5820312-8 8s3.581543 8 8 8c16.9389648 0 30.7202148 13.78125 30.7202148 30.7197266 0 4.4179688 3.581543 8 8 8s8-3.5820312 8-8c0-16.9150391 13.7434692-30.6796875 30.6501465-30.7180176 14.4570923 2.4245605 29.9363403 4.0170898 46.8527832 4.8273926.1303711.0058594.2602539.0087891.3891602.0087891.0494385 0 .0974121-.0063477.1466675-.0073242 11.4008789.536377 22.3544922.6811523 32.6282349.6811523 28.8608398 0 63.0292969-1.0673828 97.6259766-8.9863281 43.2880859-9.9082031 77.5136719-28.6435547 101.7265625-55.6875 54.4853514-60.8525392 54.6665038-131.4365235 54.6474608-134.4111329zm-426.53125-32.75c20.6416016-16.0449219 41.9858398-32.6367188 67.8378906-43.2041016 30.1376953-12.3144531 44.8325195-1.1435547 61.8486328 11.7929688 12.1791993 9.258789 24.7729493 18.8320312 42.8447266 18.8320312s30.6655273-9.5732422 42.8447266-18.8320312c17.0166016-12.9355469 31.7124023-24.1064453 61.8486328-11.7929688 25.8525391 10.5664062 47.1962891 27.1591797 67.8378906 43.2041016 16.5327148 12.8515625 32.4287109 25.2080078 49.2802734 33.1396484-1.3123169.4069824-2.6360474.796875-3.9627686 1.1826172-.2338867.0585938-.4642334.1271973-.6915283.2062988-11.1903687 3.215332-22.9075317 5.6791992-35.3510742 7.4411621-12.0254517 1.7070312-23.9936523 2.6464844-35.8118286 3.0441895-.0474854-.0007324-.0935669-.0070801-.1412964-.0070801-.1929932 0-.382019.0153809-.5715942.0288086-30.1329956.9594727-59.2767334-1.5791016-85.8825073-3.8979492-8.2695312-.720459-16.107605-1.3969727-23.5807495-1.9433594-.0054932-.0007324-.0111694-.0007324-.0166626-.0014648-9.8724976-.7216797-19.0899658-1.2104492-27.6452637-1.2104492-2.7861328 0-5.5039062.0507812-8.15625.1611328-16.9677734-.7060547-36.6401367 1.0107422-59.3989258 2.9941406-26.6096802 2.3198242-55.7561035 4.8579102-85.8927612 3.8974609-.1862183-.0129395-.3718262-.0283203-.5613403-.0283203-.046875 0-.0921021.0063477-.1387939.0070801-11.8192749-.3979492-23.7887573-1.3374023-35.8157959-3.0441895-12.4504395-1.763916-24.1738892-4.2294922-35.3704834-7.4472656-.2130737-.0737305-.428772-.1379395-.647644-.1933594-1.3345337-.3876953-2.6658325-.7800293-3.9857788-1.1894531 16.8515624-7.9316406 32.7475585-20.2880859 49.2802733-33.1396484zm330.0522461 88.3310547c-1.1774902.4145508-2.4100952.8334961-3.6679688 1.2536621v-28.9013672c9.960022-.5227051 20.0383301-1.4296875 30.1992188-2.8718262 7.3796997-1.0454102 14.5246582-2.3251953 21.4724731-3.8486328-2.3998413 4.784668-4.9172974 9.3776855-7.5574341 13.7858887-2.993164 2.5163574-14.895874 11.5861816-40.446289 20.5822754zm16.4886475 10.8496093c-6.2119751 6.373291-12.920105 12.1350098-20.1566162 17.3227539v-10.0957031c7.5966796-2.3823242 14.2904663-4.8237304 20.1566162-7.2270508zm-71.8099366 2.8757325v-41.6513672c9.7042236.5170898 19.6107178.848877 29.6875.848877 1.9818726 0 3.9714966-.015625 5.9658203-.0419922v33.1728516c-10.0744018 2.7124022-21.9013671 5.3593749-35.6533203 7.6716308zm35.6533203 8.8955078v15.6044922c-10.8152466 5.9248047-22.6608276 10.8244629-35.6533203 14.7531738v-22.9953613c13.324585-2.161377 25.1669312-4.6711426 35.6533203-7.3623047zm-94.8564453-2.4306641v-52.7250976c4.8417358.395752 9.8421631.8303223 15.0131836 1.2810059 9.1190796.7949219 18.538147 1.6098633 28.1899414 2.310791v45.0720215c-12.9346313 1.7263183-27.2980346 3.1364745-43.203125 4.0612792zm43.203125 12.1164551v24.8928223c-13.2841797 3.026123-27.6574707 5.1877441-43.203125 6.5454102v-27.5114746c15.7267456-.883545 30.0900879-2.2355958 43.203125-3.9267579zm-86.199707-10.9082031c-9.4174805 0-18.4017944-.166748-26.996582-.4675293v-54.630127c9.6992188-.5856934 18.5946655-.8388672 26.6484375-.4892578.2324219.0097656.4638672.0097656.6962891 0 8.0532837-.3491211 16.9487915-.0957031 26.6484375.489502v54.6298828c-8.5947877.3007812-17.5791016.4675293-26.9965821.4675293zm26.996582 15.5483398v27.8947754c-8.6558838.435791-17.6469727.6525879-26.996582.6525879s-18.3406982-.2167969-26.996582-.6525879v-27.8947754c8.6262817.2912598 17.6101685.4516602 26.996582.4516602s18.3703003-.1604004 26.996582-.4516602zm-113.196289-20.8178711v-45.0678711c9.6549072-.7009277 19.069397-1.5200195 28.1899414-2.3149414 5.1710205-.4506836 10.1714478-.8852539 15.0131836-1.28125v52.7253418c-15.9050904-.9248047-30.2684937-2.3349609-43.203125-4.0612793zm43.203125 20.1044922v27.5114746c-15.5456543-1.357666-29.9189453-3.5192871-43.203125-6.5454102v-24.8928223c13.1130371 1.6911622 27.4763794 3.043213 43.203125 3.9267579zm-94.8564453-30.1796875v-33.173584c12.1308594.1599121 24.0409546-.1843262 35.6533203-.8027344v41.6479492c-13.7519532-2.3122558-25.5789185-4.9592285-35.6533203-7.6716308zm35.6533203 23.9294434v22.9953613c-12.9924927-3.9287109-24.8380737-8.8283691-35.6533203-14.7531738v-15.6044922c10.4863891 2.6911621 22.3287353 5.2009277 35.6533203 7.3623047zm-55.3212891-29.9831543c-25.6205444-9.0205078-37.5177612-18.1152344-40.4405518-20.572998-2.6422119-4.4108887-5.1616211-9.0070801-7.5631104-13.795166 6.9475098 1.5234375 14.09198 2.8032227 21.4709473 3.8486328 10.1621094 1.4416504 20.2418213 2.357666 30.2006836 2.8803711v28.8928223c-1.2578735-.4201661-2.4904785-.8391115-3.6679687-1.2536622zm3.6679688 18.0766601v10.0957031c-7.2365112-5.1877441-13.9446411-10.9494629-20.1566162-17.3227539 5.8661498 2.4033204 12.5599365 4.8447266 20.1566162 7.2270508zm35.1860351 124.5170899c-3.3569336-4.9609375-7.640625-9.2441406-12.6015625-12.6015625 4.9609375-3.3574219 9.2446289-7.640625 12.6015625-12.6015625 3.3569336 4.9609375 7.640625 9.2441406 12.6015625 12.6015625-4.9609375 3.3574218-9.2446289 7.640625-12.6015625 12.6015625zm306.0996094-74.4355469c-53.1352539 59.3457031-147.2456055 59.3457031-187.4326172 59.3457031-8.395752 0-19.1537476-.0039062-31.3921509-.5458984-.3294067-.0578613-12.6867676-.7867432-18.2621765-1.2716064-15.5067291-1.3485107-29.6974182-3.4821472-42.9872742-6.4510498-10.6205444-4.8410645-18.0253906-15.550293-18.0253906-27.9628906 0-4.4179688-3.581543-8-8-8s-8 3.5820312-8 8c0 5.8217773-1.6280518 11.2702637-4.4525146 15.9145508-9.7567749-4.0952148-18.8365479-8.8669434-27.1270752-14.2280273l.0278931-.0253906c-10.5673828-6.8242188-20.4503784-14.9875488-29.2139282-24.7753906-37.4917603-41.8742676-47.1872559-89.7580566-49.6934814-111.6196289 3.7757568 1.3652344 7.5991821 2.642334 11.4790649 3.8295898 17.6629639 40.5297852 41.055603 68.5444336 73.3955688 87.9638672 16.0673828 9.6474609 34.5027466 17.1469727 55.5248413 22.5578613.3429565.1142578.6954346.2058105 1.057251.2731934 17.9933472 4.5522461 37.8757935 7.5820312 59.7843018 9.1247559.097168.0107422.1960449.0148926.2942505.0219727 11.3175659.7893066 23.1723022 1.1843262 35.5908203 1.1843262 12.4038086 0 24.2454224-.394043 35.5509033-1.1813965.1159058-.0080566.2323608-.0129395.3468018-.0258789 48.0360718-3.3835449 86.3236084-13.923584 116.3537598-31.954834 32.3399658-19.4194336 55.732605-47.434082 73.3955688-87.9638672 3.8887329-1.1899414 7.7208252-2.4699707 11.5049438-3.8388672-2.4650269 21.8215329-12.0973511 69.6093747-49.7193604 111.628906z"/></svg>